<svg xmlns="http://www.w3.org/2000/svg" viewBox="0 0 600 600" width="600" height="600">
  <defs>
    <filter id="a-glow">
      <feGaussianBlur stdDeviation="4" result="blur"/>
      <feMerge><feMergeNode in="blur"/><feMergeNode in="SourceGraphic"/></feMerge>
    </filter>
    <filter id="a-soft">
      <feGaussianBlur stdDeviation="2" result="blur"/>
      <feMerge><feMergeNode in="blur"/><feMergeNode in="SourceGraphic"/></feMerge>
    </filter>
    <linearGradient id="a-grad1" x1="0" y1="0" x2="1" y2="1">
      <stop offset="0%" stop-color="#ec4899"/>
      <stop offset="100%" stop-color="#3b82f6"/>
    </linearGradient>
    <linearGradient id="a-grad2" x1="0" y1="0" x2="1" y2="1">
      <stop offset="0%" stop-color="#eab308"/>
      <stop offset="100%" stop-color="#ec4899"/>
    </linearGradient>
  </defs>
  <rect width="600" height="600" fill="#0a0a0a"/>
  <!-- Subtle diagonal energy lines in background -->
  <g stroke="#ec4899" stroke-width="0.5" opacity="0.05">
    <line x1="0" y1="0" x2="600" y2="600"/><line x1="100" y1="0" x2="600" y2="500"/>
    <line x1="200" y1="0" x2="600" y2="400"/><line x1="0" y1="100" x2="500" y2="600"/>
    <line x1="0" y1="200" x2="400" y2="600"/><line x1="600" y1="0" x2="0" y2="600"/>
    <line x1="500" y1="0" x2="0" y2="500"/><line x1="600" y1="100" x2="100" y2="600"/>
  </g>
  <!-- QR Finder - Top Left (pink) -->
  <g filter="url(#a-glow)">
    <rect x="30" y="30" width="120" height="120" rx="6" fill="none" stroke="#ec4899" stroke-width="8"/>
    <rect x="50" y="50" width="80" height="80" rx="4" fill="none" stroke="#3b82f6" stroke-width="6"/>
    <rect x="68" y="68" width="44" height="44" rx="3" fill="#eab308"/>
  </g>
  <!-- QR Finder - Top Right (blue) -->
  <g filter="url(#a-glow)">
    <rect x="450" y="30" width="120" height="120" rx="6" fill="none" stroke="#3b82f6" stroke-width="8"/>
    <rect x="470" y="50" width="80" height="80" rx="4" fill="none" stroke="#eab308" stroke-width="6"/>
    <rect x="488" y="68" width="44" height="44" rx="3" fill="#ec4899"/>
  </g>
  <!-- QR Finder - Bottom Left (yellow) -->
  <g filter="url(#a-glow)">
    <rect x="30" y="450" width="120" height="120" rx="6" fill="none" stroke="#eab308" stroke-width="8"/>
    <rect x="50" y="470" width="80" height="80" rx="4" fill="none" stroke="#ec4899" stroke-width="6"/>
    <rect x="68" y="488" width="44" height="44" rx="3" fill="#3b82f6"/>
  </g>
  <!-- Timing patterns -->
  <g opacity="0.6">
    <rect x="170" y="82" width="12" height="12" rx="2" fill="#ec4899"/>
    <rect x="198" y="82" width="12" height="12" rx="2" fill="#3b82f6"/>
    <rect x="226" y="82" width="12" height="12" rx="2" fill="#eab308"/>
    <rect x="254" y="82" width="12" height="12" rx="2" fill="#ec4899"/>
    <rect x="282" y="82" width="12" height="12" rx="2" fill="#3b82f6"/>
    <rect x="310" y="82" width="12" height="12" rx="2" fill="#eab308"/>
    <rect x="338" y="82" width="12" height="12" rx="2" fill="#ec4899"/>
    <rect x="366" y="82" width="12" height="12" rx="2" fill="#3b82f6"/>
    <rect x="394" y="82" width="12" height="12" rx="2" fill="#eab308"/>
    <rect x="422" y="82" width="12" height="12" rx="2" fill="#ec4899"/>
    <rect x="82" y="170" width="12" height="12" rx="2" fill="#3b82f6"/>
    <rect x="82" y="198" width="12" height="12" rx="2" fill="#ec4899"/>
    <rect x="82" y="226" width="12" height="12" rx="2" fill="#eab308"/>
    <rect x="82" y="254" width="12" height="12" rx="2" fill="#3b82f6"/>
    <rect x="82" y="282" width="12" height="12" rx="2" fill="#ec4899"/>
    <rect x="82" y="310" width="12" height="12" rx="2" fill="#eab308"/>
    <rect x="82" y="338" width="12" height="12" rx="2" fill="#3b82f6"/>
    <rect x="82" y="366" width="12" height="12" rx="2" fill="#ec4899"/>
    <rect x="82" y="394" width="12" height="12" rx="2" fill="#eab308"/>
    <rect x="82" y="422" width="12" height="12" rx="2" fill="#3b82f6"/>
  </g>
  <!-- Central dynamic diagonal modules suggesting motion -->
  <g filter="url(#a-soft)">
    <!-- Diagonal streak 1 (top-left to bottom-right) - pink -->
    <rect x="190" y="190" width="14" height="14" rx="3" fill="#ec4899" opacity="0.9" transform="rotate(45,197,197)"/>
    <rect x="215" y="215" width="14" height="14" rx="3" fill="#ec4899" opacity="0.85" transform="rotate(45,222,222)"/>
    <rect x="240" y="240" width="14" height="14" rx="3" fill="#ec4899" opacity="0.9" transform="rotate(45,247,247)"/>
    <rect x="265" y="265" width="16" height="16" rx="3" fill="#ec4899" opacity="0.95" transform="rotate(45,273,273)"/>
    <rect x="290" y="290" width="16" height="16" rx="3" fill="#ec4899" opacity="1" transform="rotate(45,298,298)"/>
    <rect x="315" y="315" width="14" height="14" rx="3" fill="#ec4899" opacity="0.9" transform="rotate(45,322,322)"/>
    <rect x="340" y="340" width="14" height="14" rx="3" fill="#ec4899" opacity="0.85" transform="rotate(45,347,347)"/>
    <rect x="365" y="365" width="12" height="12" rx="3" fill="#ec4899" opacity="0.8" transform="rotate(45,371,371)"/>
    <rect x="390" y="390" width="12" height="12" rx="3" fill="#ec4899" opacity="0.75" transform="rotate(45,396,396)"/>
    <!-- Diagonal streak 2 (offset) - blue -->
    <rect x="220" y="195" width="12" height="12" rx="3" fill="#3b82f6" opacity="0.8" transform="rotate(45,226,201)"/>
    <rect x="245" y="220" width="12" height="12" rx="3" fill="#3b82f6" opacity="0.85" transform="rotate(45,251,226)"/>
    <rect x="270" y="245" width="14" height="14" rx="3" fill="#3b82f6" opacity="0.9" transform="rotate(45,277,252)"/>
    <rect x="295" y="270" width="14" height="14" rx="3" fill="#3b82f6" opacity="0.95" transform="rotate(45,302,277)"/>
    <rect x="320" y="295" width="14" height="14" rx="3" fill="#3b82f6" opacity="0.9" transform="rotate(45,327,302)"/>
    <rect x="345" y="320" width="12" height="12" rx="3" fill="#3b82f6" opacity="0.85" transform="rotate(45,351,326)"/>
    <rect x="370" y="345" width="12" height="12" rx="3" fill="#3b82f6" opacity="0.8" transform="rotate(45,376,351)"/>
    <rect x="395" y="370" width="10" height="10" rx="3" fill="#3b82f6" opacity="0.75" transform="rotate(45,400,375)"/>
    <!-- Diagonal streak 3 (opposite direction) - yellow -->
    <rect x="380" y="200" width="12" height="12" rx="3" fill="#eab308" opacity="0.8" transform="rotate(-45,386,206)"/>
    <rect x="358" y="222" width="12" height="12" rx="3" fill="#eab308" opacity="0.85" transform="rotate(-45,364,228)"/>
    <rect x="336" y="244" width="14" height="14" rx="3" fill="#eab308" opacity="0.9" transform="rotate(-45,343,251)"/>
    <rect x="314" y="266" width="14" height="14" rx="3" fill="#eab308" opacity="0.95" transform="rotate(-45,321,273)"/>
    <rect x="292" y="288" width="14" height="14" rx="3" fill="#eab308" opacity="0.9" transform="rotate(-45,299,295)"/>
    <rect x="270" y="310" width="12" height="12" rx="3" fill="#eab308" opacity="0.85" transform="rotate(-45,276,316)"/>
    <rect x="248" y="332" width="12" height="12" rx="3" fill="#eab308" opacity="0.8" transform="rotate(-45,254,338)"/>
    <rect x="226" y="354" width="10" height="10" rx="3" fill="#eab308" opacity="0.75" transform="rotate(-45,231,359)"/>
    <rect x="204" y="376" width="10" height="10" rx="3" fill="#eab308" opacity="0.7" transform="rotate(-45,209,381)"/>
    <!-- Scattered motion modules -->
    <rect x="195" y="260" width="10" height="10" rx="2" fill="#ec4899" opacity="0.6" transform="rotate(45,200,265)"/>
    <rect x="390" y="250" width="10" height="10" rx="2" fill="#3b82f6" opacity="0.6" transform="rotate(45,395,255)"/>
    <rect x="210" y="340" width="10" height="10" rx="2" fill="#eab308" opacity="0.6" transform="rotate(45,215,345)"/>
    <rect x="380" y="330" width="10" height="10" rx="2" fill="#ec4899" opacity="0.6" transform="rotate(45,385,335)"/>
    <rect x="250" y="380" width="10" height="10" rx="2" fill="#3b82f6" opacity="0.6" transform="rotate(45,255,385)"/>
    <rect x="350" y="380" width="10" height="10" rx="2" fill="#eab308" opacity="0.6" transform="rotate(45,355,385)"/>
    <rect x="300" y="220" width="12" height="12" rx="2" fill="#ec4899" opacity="0.7" transform="rotate(45,306,226)"/>
    <rect x="300" y="360" width="12" height="12" rx="2" fill="#3b82f6" opacity="0.7" transform="rotate(45,306,366)"/>
    <rect x="220" y="300" width="12" height="12" rx="2" fill="#eab308" opacity="0.7" transform="rotate(45,226,306)"/>
    <rect x="370" y="300" width="12" height="12" rx="2" fill="#ec4899" opacity="0.7" transform="rotate(45,376,306)"/>
  </g>
  <!-- Edge data modules -->
  <g opacity="0.45">
    <rect x="500" y="200" width="10" height="10" rx="2" fill="#ec4899"/>
    <rect x="520" y="230" width="10" height="10" rx="2" fill="#3b82f6"/>
    <rect x="505" y="265" width="10" height="10" rx="2" fill="#eab308"/>
    <rect x="525" y="300" width="10" height="10" rx="2" fill="#ec4899"/>
    <rect x="510" y="335" width="10" height="10" rx="2" fill="#3b82f6"/>
    <rect x="530" y="370" width="10" height="10" rx="2" fill="#eab308"/>
    <rect x="500" y="405" width="10" height="10" rx="2" fill="#ec4899"/>
    <rect x="520" y="440" width="10" height="10" rx="2" fill="#3b82f6"/>
    <rect x="495" y="475" width="10" height="10" rx="2" fill="#eab308"/>
    <rect x="515" y="505" width="10" height="10" rx="2" fill="#ec4899"/>
    <rect x="540" y="485" width="8" height="8" rx="2" fill="#3b82f6"/>
    <rect x="545" y="530" width="8" height="8" rx="2" fill="#eab308"/>
    <rect x="200" y="505" width="10" height="10" rx="2" fill="#ec4899"/>
    <rect x="240" y="520" width="10" height="10" rx="2" fill="#3b82f6"/>
    <rect x="280" y="505" width="10" height="10" rx="2" fill="#eab308"/>
    <rect x="320" y="525" width="10" height="10" rx="2" fill="#ec4899"/>
    <rect x="360" y="510" width="10" height="10" rx="2" fill="#3b82f6"/>
    <rect x="400" y="520" width="10" height="10" rx="2" fill="#eab308"/>
    <rect x="440" y="500" width="10" height="10" rx="2" fill="#ec4899"/>
    <rect x="460" y="530" width="10" height="10" rx="2" fill="#3b82f6"/>
    <rect x="535" y="555" width="8" height="8" rx="2" fill="#ec4899"/>
    <rect x="555" y="540" width="8" height="8" rx="2" fill="#eab308"/>
    <rect x="170" y="165" width="8" height="8" rx="2" fill="#3b82f6"/>
    <rect x="430" y="165" width="8" height="8" rx="2" fill="#ec4899"/>
    <rect x="165" y="440" width="8" height="8" rx="2" fill="#eab308"/>
  </g>
  <!-- Alignment pattern -->
  <g filter="url(#a-glow)">
    <rect x="440" y="440" width="40" height="40" rx="3" fill="none" stroke="#ec4899" stroke-width="4"/>
    <rect x="452" y="452" width="16" height="16" rx="2" fill="#eab308"/>
  </g>
  <!-- Speed lines effect -->
  <g stroke="url(#a-grad1)" stroke-width="1" opacity="0.1">
    <line x1="150" y1="180" x2="420" y2="420"/>
    <line x1="180" y1="150" x2="450" y2="420"/>
    <line x1="150" y1="210" x2="390" y2="450"/>
  </g>
</svg>
