<svg xmlns="http://www.w3.org/2000/svg" viewBox="0 0 600 600" width="600" height="600">
  <defs>
    <filter id="emeraldGlow">
      <feGaussianBlur stdDeviation="3" result="blur"/>
      <feComposite in="SourceGraphic" in2="blur" operator="over"/>
    </filter>
    <filter id="emeraldGlowStrong">
      <feGaussianBlur stdDeviation="6" result="blur"/>
      <feMerge>
        <feMergeNode in="blur"/>
        <feMergeNode in="SourceGraphic"/>
      </feMerge>
    </filter>
    <filter id="crystalGlow">
      <feGaussianBlur stdDeviation="4" result="blur"/>
      <feMerge>
        <feMergeNode in="blur"/>
        <feMergeNode in="blur"/>
        <feMergeNode in="SourceGraphic"/>
      </feMerge>
    </filter>
    <linearGradient id="emeraldGrad" x1="0%" y1="0%" x2="100%" y2="100%">
      <stop offset="0%" stop-color="#10b981"/>
      <stop offset="100%" stop-color="#059669"/>
    </linearGradient>
    <linearGradient id="brightGreenGrad" x1="0%" y1="0%" x2="100%" y2="100%">
      <stop offset="0%" stop-color="#22c55e"/>
      <stop offset="100%" stop-color="#10b981"/>
    </linearGradient>
    <radialGradient id="bgDeepGreen" cx="50%" cy="50%" r="60%">
      <stop offset="0%" stop-color="#0a1a10"/>
      <stop offset="100%" stop-color="#050d08"/>
    </radialGradient>
    <radialGradient id="trichomeGrad" cx="30%" cy="30%" r="70%">
      <stop offset="0%" stop-color="#bbf7d0"/>
      <stop offset="50%" stop-color="#22c55e"/>
      <stop offset="100%" stop-color="#059669"/>
    </radialGradient>
  </defs>

  <!-- Background -->
  <rect width="600" height="600" fill="url(#bgDeepGreen)"/>

  <!-- Subtle organic background texture -->
  <g opacity="0.03" stroke="#10b981" stroke-width="0.8" fill="none">
    <circle cx="300" cy="300" r="80"/>
    <circle cx="300" cy="300" r="120"/>
    <circle cx="300" cy="300" r="160"/>
    <circle cx="300" cy="300" r="200"/>
    <circle cx="300" cy="300" r="240"/>
  </g>

  <!-- QR Finder Pattern - Top Left -->
  <g filter="url(#emeraldGlow)">
    <rect x="30" y="30" width="98" height="98" rx="4" fill="none" stroke="url(#emeraldGrad)" stroke-width="6"/>
    <rect x="46" y="46" width="66" height="66" rx="3" fill="none" stroke="url(#emeraldGrad)" stroke-width="3"/>
    <rect x="58" y="58" width="42" height="42" rx="2" fill="url(#emeraldGrad)"/>
  </g>

  <!-- QR Finder Pattern - Top Right -->
  <g filter="url(#emeraldGlow)">
    <rect x="472" y="30" width="98" height="98" rx="4" fill="none" stroke="url(#emeraldGrad)" stroke-width="6"/>
    <rect x="488" y="46" width="66" height="66" rx="3" fill="none" stroke="url(#emeraldGrad)" stroke-width="3"/>
    <rect x="500" y="58" width="42" height="42" rx="2" fill="url(#emeraldGrad)"/>
  </g>

  <!-- QR Finder Pattern - Bottom Left -->
  <g filter="url(#emeraldGlow)">
    <rect x="30" y="472" width="98" height="98" rx="4" fill="none" stroke="url(#emeraldGrad)" stroke-width="6"/>
    <rect x="46" y="488" width="66" height="66" rx="3" fill="none" stroke="url(#emeraldGrad)" stroke-width="3"/>
    <rect x="58" y="500" width="42" height="42" rx="2" fill="url(#emeraldGrad)"/>
  </g>

  <!-- Timing patterns - horizontal -->
  <g filter="url(#emeraldGlow)" opacity="0.7">
    <rect x="140" y="64" width="12" height="12" rx="2" fill="#10b981"/>
    <rect x="164" y="64" width="12" height="12" rx="2" fill="#059669"/>
    <rect x="188" y="64" width="12" height="12" rx="2" fill="#22c55e"/>
    <rect x="212" y="64" width="12" height="12" rx="2" fill="#10b981"/>
    <rect x="236" y="64" width="12" height="12" rx="2" fill="#059669"/>
    <rect x="260" y="64" width="12" height="12" rx="2" fill="#22c55e"/>
    <rect x="284" y="64" width="12" height="12" rx="2" fill="#10b981"/>
    <rect x="308" y="64" width="12" height="12" rx="2" fill="#059669"/>
    <rect x="332" y="64" width="12" height="12" rx="2" fill="#22c55e"/>
    <rect x="356" y="64" width="12" height="12" rx="2" fill="#10b981"/>
    <rect x="380" y="64" width="12" height="12" rx="2" fill="#059669"/>
    <rect x="404" y="64" width="12" height="12" rx="2" fill="#22c55e"/>
    <rect x="428" y="64" width="12" height="12" rx="2" fill="#10b981"/>
    <rect x="452" y="64" width="12" height="12" rx="2" fill="#059669"/>
  </g>

  <!-- Timing patterns - vertical -->
  <g filter="url(#emeraldGlow)" opacity="0.7">
    <rect x="64" y="140" width="12" height="12" rx="2" fill="#10b981"/>
    <rect x="64" y="164" width="12" height="12" rx="2" fill="#059669"/>
    <rect x="64" y="188" width="12" height="12" rx="2" fill="#22c55e"/>
    <rect x="64" y="212" width="12" height="12" rx="2" fill="#10b981"/>
    <rect x="64" y="236" width="12" height="12" rx="2" fill="#059669"/>
    <rect x="64" y="260" width="12" height="12" rx="2" fill="#22c55e"/>
    <rect x="64" y="284" width="12" height="12" rx="2" fill="#10b981"/>
    <rect x="64" y="308" width="12" height="12" rx="2" fill="#059669"/>
    <rect x="64" y="332" width="12" height="12" rx="2" fill="#22c55e"/>
    <rect x="64" y="356" width="12" height="12" rx="2" fill="#10b981"/>
    <rect x="64" y="380" width="12" height="12" rx="2" fill="#059669"/>
    <rect x="64" y="404" width="12" height="12" rx="2" fill="#22c55e"/>
    <rect x="64" y="428" width="12" height="12" rx="2" fill="#10b981"/>
    <rect x="64" y="452" width="12" height="12" rx="2" fill="#059669"/>
  </g>

  <!-- Central trichome/crystal scattered modules -->
  <g filter="url(#crystalGlow)">
    <!-- Trichome stalks - vertical lines of modules -->
    <!-- Stalk 1 - center -->
    <rect x="293" y="200" width="14" height="6" rx="3" fill="#bbf7d0"/>
    <rect x="293" y="212" width="14" height="6" rx="3" fill="#22c55e"/>
    <rect x="293" y="224" width="14" height="6" rx="3" fill="#10b981"/>
    <rect x="290" y="236" width="8" height="8" rx="4" fill="#bbf7d0" opacity="0.9"/>
    <rect x="302" y="236" width="8" height="8" rx="4" fill="#bbf7d0" opacity="0.7"/>

    <!-- Stalk 2 - left -->
    <rect x="233" y="240" width="12" height="6" rx="3" fill="#22c55e"/>
    <rect x="233" y="252" width="12" height="6" rx="3" fill="#10b981"/>
    <rect x="233" y="264" width="12" height="6" rx="3" fill="#059669"/>
    <rect x="230" y="276" width="7" height="7" rx="3.5" fill="#bbf7d0" opacity="0.8"/>
    <rect x="241" y="274" width="7" height="7" rx="3.5" fill="#bbf7d0" opacity="0.6"/>

    <!-- Stalk 3 - right -->
    <rect x="355" y="235" width="12" height="6" rx="3" fill="#22c55e"/>
    <rect x="355" y="247" width="12" height="6" rx="3" fill="#10b981"/>
    <rect x="355" y="259" width="12" height="6" rx="3" fill="#059669"/>
    <rect x="352" y="271" width="7" height="7" rx="3.5" fill="#bbf7d0" opacity="0.8"/>
    <rect x="363" y="269" width="7" height="7" rx="3.5" fill="#bbf7d0" opacity="0.6"/>

    <!-- Crystal cluster center -->
    <rect x="270" y="280" width="10" height="10" rx="2" fill="#10b981"/>
    <rect x="286" y="275" width="12" height="12" rx="2" fill="#22c55e"/>
    <rect x="302" y="278" width="12" height="12" rx="2" fill="#10b981"/>
    <rect x="318" y="280" width="10" height="10" rx="2" fill="#059669"/>
    <rect x="260" y="296" width="10" height="10" rx="2" fill="#059669"/>
    <rect x="276" y="296" width="14" height="14" rx="3" fill="#22c55e"/>
    <rect x="296" y="293" width="16" height="16" rx="3" fill="#bbf7d0"/>
    <rect x="316" y="296" width="14" height="14" rx="3" fill="#22c55e"/>
    <rect x="336" y="296" width="10" height="10" rx="2" fill="#059669"/>

    <!-- Scattered crystal modules below center -->
    <rect x="248" y="318" width="12" height="12" rx="2" fill="#10b981"/>
    <rect x="270" y="322" width="10" height="10" rx="2" fill="#22c55e"/>
    <rect x="290" y="318" width="14" height="14" rx="3" fill="#10b981"/>
    <rect x="310" y="320" width="12" height="12" rx="2" fill="#059669"/>
    <rect x="330" y="316" width="12" height="12" rx="2" fill="#22c55e"/>
    <rect x="350" y="320" width="10" height="10" rx="2" fill="#10b981"/>

    <!-- More stalks below -->
    <rect x="260" y="345" width="10" height="5" rx="2.5" fill="#059669"/>
    <rect x="260" y="355" width="10" height="5" rx="2.5" fill="#10b981"/>
    <rect x="257" y="364" width="7" height="7" rx="3.5" fill="#bbf7d0" opacity="0.7"/>
    <rect x="267" y="362" width="6" height="6" rx="3" fill="#bbf7d0" opacity="0.5"/>

    <rect x="320" y="342" width="10" height="5" rx="2.5" fill="#059669"/>
    <rect x="320" y="352" width="10" height="5" rx="2.5" fill="#10b981"/>
    <rect x="317" y="361" width="7" height="7" rx="3.5" fill="#bbf7d0" opacity="0.7"/>
    <rect x="327" y="359" width="6" height="6" rx="3" fill="#bbf7d0" opacity="0.5"/>

    <!-- Scattered trichome-like dots (crystal heads) -->
    <circle cx="210" cy="260" r="4" fill="#bbf7d0" opacity="0.6"/>
    <circle cx="390" cy="255" r="4" fill="#bbf7d0" opacity="0.6"/>
    <circle cx="220" cy="340" r="3.5" fill="#bbf7d0" opacity="0.5"/>
    <circle cx="380" cy="345" r="3.5" fill="#bbf7d0" opacity="0.5"/>
    <circle cx="300" cy="380" r="4" fill="#bbf7d0" opacity="0.6"/>
    <circle cx="250" cy="220" r="3" fill="#bbf7d0" opacity="0.4"/>
    <circle cx="350" cy="215" r="3" fill="#bbf7d0" opacity="0.4"/>
    <circle cx="200" cy="300" r="3.5" fill="#bbf7d0" opacity="0.5"/>
    <circle cx="400" cy="300" r="3.5" fill="#bbf7d0" opacity="0.5"/>

    <!-- Additional crystal modules -->
    <rect x="210" y="280" width="8" height="8" rx="2" fill="#059669"/>
    <rect x="370" y="282" width="8" height="8" rx="2" fill="#059669"/>
    <rect x="240" y="360" width="8" height="8" rx="2" fill="#10b981"/>
    <rect x="345" y="358" width="8" height="8" rx="2" fill="#10b981"/>
    <rect x="290" y="390" width="10" height="10" rx="2" fill="#059669"/>
    <rect x="310" y="388" width="8" height="8" rx="2" fill="#22c55e"/>
  </g>

  <!-- Scattered data modules around edges -->
  <g opacity="0.55" filter="url(#emeraldGlow)">
    <rect x="155" y="105" width="10" height="10" rx="2" fill="#10b981"/>
    <rect x="195" y="120" width="8" height="8" rx="2" fill="#059669"/>
    <rect x="230" y="108" width="10" height="10" rx="2" fill="#22c55e"/>
    <rect x="345" y="112" width="8" height="8" rx="2" fill="#10b981"/>
    <rect x="385" y="100" width="10" height="10" rx="2" fill="#059669"/>
    <rect x="425" y="125" width="8" height="8" rx="2" fill="#22c55e"/>
    <rect x="270" y="140" width="8" height="8" rx="2" fill="#10b981"/>
    <rect x="330" y="145" width="10" height="10" rx="2" fill="#059669"/>
    <rect x="175" y="140" width="8" height="8" rx="2" fill="#22c55e"/>
    <rect x="420" y="140" width="8" height="8" rx="2" fill="#10b981"/>

    <rect x="485" y="170" width="10" height="10" rx="2" fill="#22c55e"/>
    <rect x="510" y="215" width="8" height="8" rx="2" fill="#10b981"/>
    <rect x="495" y="265" width="10" height="10" rx="2" fill="#059669"/>
    <rect x="515" y="315" width="8" height="8" rx="2" fill="#22c55e"/>
    <rect x="500" y="365" width="10" height="10" rx="2" fill="#10b981"/>
    <rect x="485" y="415" width="8" height="8" rx="2" fill="#059669"/>
    <rect x="510" y="460" width="10" height="10" rx="2" fill="#22c55e"/>

    <rect x="160" y="462" width="10" height="10" rx="2" fill="#10b981"/>
    <rect x="215" y="478" width="8" height="8" rx="2" fill="#059669"/>
    <rect x="270" y="468" width="10" height="10" rx="2" fill="#22c55e"/>
    <rect x="320" y="482" width="8" height="8" rx="2" fill="#10b981"/>
    <rect x="375" y="465" width="10" height="10" rx="2" fill="#059669"/>
    <rect x="430" y="488" width="8" height="8" rx="2" fill="#22c55e"/>
    <rect x="200" y="518" width="10" height="10" rx="2" fill="#10b981"/>
    <rect x="305" y="530" width="8" height="8" rx="2" fill="#059669"/>
    <rect x="405" y="538" width="10" height="10" rx="2" fill="#22c55e"/>
    <rect x="500" y="525" width="8" height="8" rx="2" fill="#10b981"/>
    <rect x="540" y="550" width="10" height="10" rx="2" fill="#059669"/>
    <rect x="155" y="550" width="8" height="8" rx="2" fill="#22c55e"/>
    <rect x="350" y="555" width="8" height="8" rx="2" fill="#10b981"/>

    <rect x="105" y="175" width="10" height="10" rx="2" fill="#22c55e"/>
    <rect x="115" y="225" width="8" height="8" rx="2" fill="#10b981"/>
    <rect x="100" y="280" width="10" height="10" rx="2" fill="#059669"/>
    <rect x="120" y="335" width="8" height="8" rx="2" fill="#22c55e"/>
    <rect x="105" y="385" width="10" height="10" rx="2" fill="#10b981"/>
    <rect x="130" y="430" width="8" height="8" rx="2" fill="#059669"/>
  </g>

  <!-- Alignment pattern -->
  <g filter="url(#emeraldGlow)">
    <rect x="440" y="440" width="36" height="36" rx="3" fill="none" stroke="#10b981" stroke-width="3"/>
    <rect x="452" y="452" width="12" height="12" rx="2" fill="#22c55e"/>
  </g>

  <!-- Fine crystal sparkles -->
  <g opacity="0.25">
    <circle cx="172" cy="158" r="2.5" fill="#bbf7d0"/>
    <circle cx="432" cy="155" r="2.5" fill="#bbf7d0"/>
    <circle cx="542" cy="185" r="2" fill="#bbf7d0"/>
    <circle cx="545" cy="425" r="2" fill="#bbf7d0"/>
    <circle cx="170" cy="540" r="2.5" fill="#bbf7d0"/>
    <circle cx="445" cy="555" r="2" fill="#bbf7d0"/>
    <circle cx="555" cy="555" r="2" fill="#bbf7d0"/>
  </g>
</svg>