<svg xmlns="http://www.w3.org/2000/svg" viewBox="0 0 600 600" width="600" height="600">
  <defs>
    <filter id="blueGlow">
      <feGaussianBlur stdDeviation="3" result="blur"/>
      <feComposite in="SourceGraphic" in2="blur" operator="over"/>
    </filter>
    <filter id="boltGlow">
      <feGaussianBlur stdDeviation="5" result="blur"/>
      <feMerge>
        <feMergeNode in="blur"/>
        <feMergeNode in="SourceGraphic"/>
      </feMerge>
    </filter>
    <filter id="electricGlow">
      <feGaussianBlur stdDeviation="8" result="blur"/>
      <feMerge>
        <feMergeNode in="blur"/>
        <feMergeNode in="blur"/>
        <feMergeNode in="SourceGraphic"/>
      </feMerge>
    </filter>
    <linearGradient id="blueGrad" x1="0%" y1="0%" x2="100%" y2="100%">
      <stop offset="0%" stop-color="#3b82f6"/>
      <stop offset="100%" stop-color="#7c3aed"/>
    </linearGradient>
    <linearGradient id="purpleGrad" x1="0%" y1="0%" x2="100%" y2="100%">
      <stop offset="0%" stop-color="#7c3aed"/>
      <stop offset="100%" stop-color="#3b82f6"/>
    </linearGradient>
    <linearGradient id="boltGrad" x1="0%" y1="0%" x2="100%" y2="100%">
      <stop offset="0%" stop-color="#93c5fd"/>
      <stop offset="50%" stop-color="#3b82f6"/>
      <stop offset="100%" stop-color="#7c3aed"/>
    </linearGradient>
    <radialGradient id="bgBlue" cx="50%" cy="50%" r="60%">
      <stop offset="0%" stop-color="#0d0d1a"/>
      <stop offset="100%" stop-color="#06060d"/>
    </radialGradient>
  </defs>

  <!-- Background -->
  <rect width="600" height="600" fill="url(#bgBlue)"/>

  <!-- Speed lines background -->
  <g opacity="0.04" stroke="#3b82f6" stroke-width="1">
    <line x1="0" y1="100" x2="600" y2="80"/>
    <line x1="0" y1="200" x2="600" y2="190"/>
    <line x1="0" y1="300" x2="600" y2="310"/>
    <line x1="0" y1="400" x2="600" y2="390"/>
    <line x1="0" y1="500" x2="600" y2="510"/>
  </g>
  <g opacity="0.03" stroke="#7c3aed" stroke-width="1">
    <line x1="100" y1="0" x2="80" y2="600"/>
    <line x1="200" y1="0" x2="210" y2="600"/>
    <line x1="300" y1="0" x2="290" y2="600"/>
    <line x1="400" y1="0" x2="410" y2="600"/>
    <line x1="500" y1="0" x2="490" y2="600"/>
  </g>

  <!-- QR Finder Pattern - Top Left -->
  <g filter="url(#blueGlow)">
    <rect x="30" y="30" width="98" height="98" rx="4" fill="none" stroke="url(#blueGrad)" stroke-width="6"/>
    <rect x="46" y="46" width="66" height="66" rx="3" fill="none" stroke="url(#blueGrad)" stroke-width="3"/>
    <rect x="58" y="58" width="42" height="42" rx="2" fill="url(#blueGrad)"/>
  </g>

  <!-- QR Finder Pattern - Top Right -->
  <g filter="url(#blueGlow)">
    <rect x="472" y="30" width="98" height="98" rx="4" fill="none" stroke="url(#purpleGrad)" stroke-width="6"/>
    <rect x="488" y="46" width="66" height="66" rx="3" fill="none" stroke="url(#purpleGrad)" stroke-width="3"/>
    <rect x="500" y="58" width="42" height="42" rx="2" fill="url(#purpleGrad)"/>
  </g>

  <!-- QR Finder Pattern - Bottom Left -->
  <g filter="url(#blueGlow)">
    <rect x="30" y="472" width="98" height="98" rx="4" fill="none" stroke="url(#blueGrad)" stroke-width="6"/>
    <rect x="46" y="488" width="66" height="66" rx="3" fill="none" stroke="url(#blueGrad)" stroke-width="3"/>
    <rect x="58" y="500" width="42" height="42" rx="2" fill="url(#blueGrad)"/>
  </g>

  <!-- Timing patterns - horizontal -->
  <g filter="url(#blueGlow)" opacity="0.7">
    <rect x="140" y="64" width="12" height="12" rx="2" fill="#3b82f6"/>
    <rect x="164" y="64" width="12" height="12" rx="2" fill="#7c3aed"/>
    <rect x="188" y="64" width="12" height="12" rx="2" fill="#3b82f6"/>
    <rect x="212" y="64" width="12" height="12" rx="2" fill="#7c3aed"/>
    <rect x="236" y="64" width="12" height="12" rx="2" fill="#3b82f6"/>
    <rect x="260" y="64" width="12" height="12" rx="2" fill="#7c3aed"/>
    <rect x="284" y="64" width="12" height="12" rx="2" fill="#3b82f6"/>
    <rect x="308" y="64" width="12" height="12" rx="2" fill="#7c3aed"/>
    <rect x="332" y="64" width="12" height="12" rx="2" fill="#3b82f6"/>
    <rect x="356" y="64" width="12" height="12" rx="2" fill="#7c3aed"/>
    <rect x="380" y="64" width="12" height="12" rx="2" fill="#3b82f6"/>
    <rect x="404" y="64" width="12" height="12" rx="2" fill="#7c3aed"/>
    <rect x="428" y="64" width="12" height="12" rx="2" fill="#3b82f6"/>
    <rect x="452" y="64" width="12" height="12" rx="2" fill="#7c3aed"/>
  </g>

  <!-- Timing patterns - vertical -->
  <g filter="url(#blueGlow)" opacity="0.7">
    <rect x="64" y="140" width="12" height="12" rx="2" fill="#3b82f6"/>
    <rect x="64" y="164" width="12" height="12" rx="2" fill="#7c3aed"/>
    <rect x="64" y="188" width="12" height="12" rx="2" fill="#3b82f6"/>
    <rect x="64" y="212" width="12" height="12" rx="2" fill="#7c3aed"/>
    <rect x="64" y="236" width="12" height="12" rx="2" fill="#3b82f6"/>
    <rect x="64" y="260" width="12" height="12" rx="2" fill="#7c3aed"/>
    <rect x="64" y="284" width="12" height="12" rx="2" fill="#3b82f6"/>
    <rect x="64" y="308" width="12" height="12" rx="2" fill="#7c3aed"/>
    <rect x="64" y="332" width="12" height="12" rx="2" fill="#3b82f6"/>
    <rect x="64" y="356" width="12" height="12" rx="2" fill="#7c3aed"/>
    <rect x="64" y="380" width="12" height="12" rx="2" fill="#3b82f6"/>
    <rect x="64" y="404" width="12" height="12" rx="2" fill="#7c3aed"/>
    <rect x="64" y="428" width="12" height="12" rx="2" fill="#3b82f6"/>
    <rect x="64" y="452" width="12" height="12" rx="2" fill="#7c3aed"/>
  </g>

  <!-- Lightning bolt diagonal lines connecting modules -->
  <g filter="url(#electricGlow)" opacity="0.5">
    <!-- Main bolt from top-left to center -->
    <path d="M160,160 L200,200 L185,210 L240,270 L225,275 L280,340" stroke="url(#boltGrad)" stroke-width="2" fill="none" stroke-linecap="round"/>
    <!-- Main bolt from top-right to center -->
    <path d="M440,160 L400,200 L415,210 L360,270 L375,275 L320,340" stroke="url(#boltGrad)" stroke-width="2" fill="none" stroke-linecap="round"/>
    <!-- Bolt from center down-left -->
    <path d="M280,320 L240,370 L255,375 L210,430 L225,435 L180,480" stroke="url(#boltGrad)" stroke-width="2" fill="none" stroke-linecap="round"/>
    <!-- Bolt from center down-right -->
    <path d="M320,320 L360,370 L345,375 L400,430 L385,435 L430,480" stroke="url(#boltGrad)" stroke-width="2" fill="none" stroke-linecap="round"/>
    <!-- Cross bolt -->
    <path d="M200,300 L250,290 L245,300 L300,300 L295,310 L350,300 L345,310 L400,300" stroke="#93c5fd" stroke-width="1.5" fill="none" stroke-linecap="round" opacity="0.6"/>
  </g>

  <!-- Central data modules - lightning pattern -->
  <g filter="url(#boltGlow)">
    <!-- Top cluster -->
    <rect x="275" y="190" width="14" height="14" rx="2" fill="#3b82f6"/>
    <rect x="311" y="190" width="14" height="14" rx="2" fill="#7c3aed"/>
    <rect x="260" y="210" width="12" height="12" rx="2" fill="#7c3aed"/>
    <rect x="290" y="210" width="14" height="14" rx="2" fill="#93c5fd"/>
    <rect x="320" y="210" width="12" height="12" rx="2" fill="#3b82f6"/>
    <rect x="340" y="200" width="10" height="10" rx="2" fill="#7c3aed"/>
    <rect x="240" y="200" width="10" height="10" rx="2" fill="#3b82f6"/>

    <!-- Middle rows -->
    <rect x="220" y="240" width="12" height="12" rx="2" fill="#3b82f6"/>
    <rect x="250" y="240" width="14" height="14" rx="2" fill="#7c3aed"/>
    <rect x="280" y="240" width="14" height="14" rx="2" fill="#3b82f6"/>
    <rect x="310" y="240" width="14" height="14" rx="2" fill="#93c5fd"/>
    <rect x="340" y="240" width="14" height="14" rx="2" fill="#7c3aed"/>
    <rect x="370" y="240" width="12" height="12" rx="2" fill="#3b82f6"/>

    <rect x="200" y="268" width="10" height="10" rx="2" fill="#7c3aed"/>
    <rect x="230" y="268" width="14" height="14" rx="2" fill="#3b82f6"/>
    <rect x="260" y="268" width="14" height="14" rx="2" fill="#93c5fd"/>
    <rect x="290" y="268" width="14" height="14" rx="2" fill="#7c3aed"/>
    <rect x="320" y="268" width="14" height="14" rx="2" fill="#3b82f6"/>
    <rect x="350" y="268" width="14" height="14" rx="2" fill="#93c5fd"/>
    <rect x="380" y="268" width="10" height="10" rx="2" fill="#7c3aed"/>

    <!-- Center row - brightest -->
    <rect x="190" y="296" width="12" height="12" rx="2" fill="#3b82f6"/>
    <rect x="218" y="296" width="14" height="14" rx="2" fill="#93c5fd"/>
    <rect x="248" y="296" width="14" height="14" rx="2" fill="#3b82f6"/>
    <rect x="278" y="293" width="18" height="18" rx="3" fill="#93c5fd"/>
    <rect x="308" y="293" width="18" height="18" rx="3" fill="#93c5fd"/>
    <rect x="338" y="296" width="14" height="14" rx="2" fill="#3b82f6"/>
    <rect x="368" y="296" width="14" height="14" rx="2" fill="#93c5fd"/>
    <rect x="398" y="296" width="12" height="12" rx="2" fill="#3b82f6"/>

    <!-- Below center -->
    <rect x="200" y="325" width="10" height="10" rx="2" fill="#7c3aed"/>
    <rect x="230" y="325" width="14" height="14" rx="2" fill="#3b82f6"/>
    <rect x="260" y="325" width="14" height="14" rx="2" fill="#93c5fd"/>
    <rect x="290" y="325" width="14" height="14" rx="2" fill="#7c3aed"/>
    <rect x="320" y="325" width="14" height="14" rx="2" fill="#3b82f6"/>
    <rect x="350" y="325" width="14" height="14" rx="2" fill="#93c5fd"/>
    <rect x="380" y="325" width="10" height="10" rx="2" fill="#7c3aed"/>

    <rect x="220" y="353" width="12" height="12" rx="2" fill="#3b82f6"/>
    <rect x="250" y="353" width="14" height="14" rx="2" fill="#7c3aed"/>
    <rect x="280" y="353" width="14" height="14" rx="2" fill="#3b82f6"/>
    <rect x="310" y="353" width="14" height="14" rx="2" fill="#93c5fd"/>
    <rect x="340" y="353" width="14" height="14" rx="2" fill="#7c3aed"/>
    <rect x="370" y="353" width="12" height="12" rx="2" fill="#3b82f6"/>

    <!-- Bottom cluster -->
    <rect x="260" y="380" width="12" height="12" rx="2" fill="#7c3aed"/>
    <rect x="290" y="380" width="14" height="14" rx="2" fill="#93c5fd"/>
    <rect x="320" y="380" width="12" height="12" rx="2" fill="#3b82f6"/>
    <rect x="275" y="400" width="14" height="14" rx="2" fill="#3b82f6"/>
    <rect x="311" y="400" width="14" height="14" rx="2" fill="#7c3aed"/>
  </g>

  <!-- Scattered data modules around edges -->
  <g opacity="0.55" filter="url(#blueGlow)">
    <rect x="155" y="105" width="10" height="10" rx="2" fill="#3b82f6"/>
    <rect x="200" y="120" width="8" height="8" rx="2" fill="#7c3aed"/>
    <rect x="350" y="110" width="10" height="10" rx="2" fill="#3b82f6"/>
    <rect x="400" y="100" width="8" height="8" rx="2" fill="#7c3aed"/>
    <rect x="430" y="130" width="10" height="10" rx="2" fill="#3b82f6"/>
    <rect x="250" y="140" width="8" height="8" rx="2" fill="#93c5fd"/>

    <rect x="490" y="170" width="10" height="10" rx="2" fill="#7c3aed"/>
    <rect x="510" y="220" width="8" height="8" rx="2" fill="#3b82f6"/>
    <rect x="500" y="280" width="10" height="10" rx="2" fill="#93c5fd"/>
    <rect x="520" y="340" width="8" height="8" rx="2" fill="#7c3aed"/>
    <rect x="490" y="400" width="10" height="10" rx="2" fill="#3b82f6"/>
    <rect x="510" y="460" width="8" height="8" rx="2" fill="#93c5fd"/>

    <rect x="160" y="460" width="10" height="10" rx="2" fill="#3b82f6"/>
    <rect x="220" y="475" width="8" height="8" rx="2" fill="#7c3aed"/>
    <rect x="300" y="480" width="10" height="10" rx="2" fill="#93c5fd"/>
    <rect x="370" y="470" width="8" height="8" rx="2" fill="#3b82f6"/>
    <rect x="440" y="490" width="10" height="10" rx="2" fill="#7c3aed"/>
    <rect x="200" y="520" width="8" height="8" rx="2" fill="#3b82f6"/>
    <rect x="310" y="535" width="10" height="10" rx="2" fill="#7c3aed"/>
    <rect x="420" y="540" width="8" height="8" rx="2" fill="#93c5fd"/>
    <rect x="500" y="530" width="10" height="10" rx="2" fill="#3b82f6"/>
    <rect x="540" y="555" width="8" height="8" rx="2" fill="#7c3aed"/>

    <rect x="105" y="180" width="10" height="10" rx="2" fill="#7c3aed"/>
    <rect x="115" y="240" width="8" height="8" rx="2" fill="#3b82f6"/>
    <rect x="100" y="310" width="10" height="10" rx="2" fill="#93c5fd"/>
    <rect x="120" y="370" width="8" height="8" rx="2" fill="#7c3aed"/>
    <rect x="105" y="430" width="10" height="10" rx="2" fill="#3b82f6"/>
  </g>

  <!-- Alignment pattern -->
  <g filter="url(#blueGlow)">
    <rect x="440" y="440" width="36" height="36" rx="3" fill="none" stroke="#7c3aed" stroke-width="3"/>
    <rect x="452" y="452" width="12" height="12" rx="2" fill="#3b82f6"/>
  </g>

  <!-- Fine detail dots -->
  <g opacity="0.3">
    <rect x="170" y="155" width="6" height="6" rx="1" fill="#3b82f6"/>
    <rect x="430" y="155" width="6" height="6" rx="1" fill="#7c3aed"/>
    <rect x="540" y="170" width="6" height="6" rx="1" fill="#93c5fd"/>
    <rect x="540" y="430" width="6" height="6" rx="1" fill="#3b82f6"/>
    <rect x="160" y="545" width="6" height="6" rx="1" fill="#7c3aed"/>
    <rect x="350" y="555" width="6" height="6" rx="1" fill="#93c5fd"/>
    <rect x="555" y="555" width="6" height="6" rx="1" fill="#3b82f6"/>
  </g>
</svg>